<?xml version="1.0" encoding="utf-8"?>
<svg xmlns="http://www.w3.org/2000/svg" viewBox="0 0 1920 1080">
  <g transform="matrix(1.85896, 0, 0, 1.859049, -25.488554, 42.619972)" style="">
    <path d="M 37.595 15.885 L 1021.406 15.885 Q 1032.945 18.642 1038.879 27.005 L 1043.115 35.477 L 1043.115 504.614 Q 1039.885 515.68 1030.937 521.028 L 1023.523 524.205 L 36.536 524.205 Q 26.414 521.619 21.18 514.145 L 15.885 502.496 L 15.885 38.654 Q 17.703 27.763 24.886 22.239 L 37.595 15.885 Z M 88 69 L 80 71 L 75 74 L 69 83 Q 67 94 72 99 L 79 104 Q 88 105 92 102 L 95 96 L 94 88 L 88 85 L 92 84 L 100 87 L 113 101 L 128 127 L 136 150 L 137 161 L 138 163 L 138 174 L 139 175 L 139 192 L 138 195 L 139 197 L 178 197 L 178 172 L 180 165 L 180 159 L 187 133 L 196 113 L 195 111 L 164 111 L 164 132 L 160 148 Q 150 112 130 86 Q 123 76 111 71 L 101 69 L 88 69 Z M 432 108 L 418 111 L 408 116 Q 394 127 390 148 L 391 166 L 397 181 L 402 187 Q 411 195 426 198 Q 446 200 455 193 Q 462 189 464 181 Q 465 169 462 164 L 452 173 L 444 176 Q 435 177 430 174 Q 422 168 419 156 L 419 145 L 423 136 Q 427 130 436 127 L 443 128 L 445 131 L 442 129 L 437 130 L 433 135 L 435 142 L 441 145 Q 449 147 453 144 Q 458 141 460 134 Q 461 125 459 119 Q 454 113 446 110 L 432 108 Z M 949 108 L 936 114 Q 929 119 927 129 Q 925 141 930 147 L 938 155 L 954 163 L 959 171 Q 961 180 957 184 L 955 185 Q 948 187 947 183 L 948 183 L 953 182 Q 957 179 955 171 Q 952 166 945 164 Q 935 163 930 168 L 925 177 L 925 183 L 928 190 L 934 196 L 943 200 Q 948 199 949 201 L 971 199 L 982 193 Q 989 187 991 176 L 990 169 L 983 157 Q 976 150 965 146 L 958 137 Q 958 129 963 126 L 973 127 L 975 130 L 973 129 Q 966 129 965 133 L 966 140 Q 969 145 975 146 L 982 144 L 988 136 Q 990 123 985 117 Q 975 105 949 108 Z M 510 109 L 496 116 Q 483 128 479 148 Q 477 170 486 183 Q 493 194 508 198 Q 528 200 536 191 Q 548 181 551 164 L 551 148 L 550 142 Q 546 130 538 120 Q 533 113 524 110 Q 519 108 510 109 Z M 215 111 L 215 131 L 214 132 L 213 150 Q 208 174 199 194 L 200 197 L 232 197 L 230 187 L 230 178 L 232 179 Q 243 180 249 178 L 248 191 L 247 192 Q 246 197 247 197 L 280 197 L 266 154 L 265 142 L 264 141 L 264 128 L 263 127 L 264 122 L 264 112 L 263 111 L 215 111 Z M 301 111 L 302 125 L 303 127 L 303 169 L 299 193 L 299 197 L 328 197 L 324 182 L 325 160 Q 338 173 343 194 L 344 197 L 375 197 L 373 176 L 372 175 L 372 165 L 371 164 L 371 131 L 375 113 L 374 111 L 345 111 L 347 123 L 347 134 L 348 135 L 348 148 Q 335 136 333 113 L 331 111 L 301 111 Z M 566 111 L 571 130 L 571 171 L 576 186 Q 582 195 596 198 L 607 198 L 622 192 Q 633 184 635 168 L 635 134 L 636 133 L 638 120 L 641 112 L 610 111 L 613 121 L 614 133 L 615 134 L 615 149 L 610 164 L 604 167 L 600 166 L 595 161 L 592 152 L 593 129 L 596 116 L 598 113 L 598 111 L 566 111 Z M 656 111 L 667 146 L 671 167 L 671 197 L 717 197 L 717 174 L 718 173 L 719 159 L 723 141 L 733 113 L 732 111 L 701 111 L 701 119 L 702 120 L 701 138 L 696 160 L 692 146 L 687 121 L 687 112 L 687 111 L 656 111 Z M 748 111 L 751 122 L 752 139 L 753 140 L 753 165 L 752 166 L 751 185 L 749 192 Q 748 197 749 197 L 811 197 L 808 181 L 808 170 L 806 168 L 805 171 L 796 177 Q 786 178 781 174 L 777 168 Q 777 162 779 159 L 783 157 L 785 159 L 791 164 L 799 163 L 804 156 Q 804 150 802 148 L 794 143 L 785 143 L 775 147 L 775 142 L 779 134 L 789 127 Q 798 126 802 130 L 807 138 L 809 136 L 809 128 L 812 113 L 812 111 L 748 111 Z M 831 111 L 832 129 L 833 130 L 833 175 L 832 176 L 831 194 Q 829 196 832 197 L 864 197 L 865 195 L 861 177 L 860 161 L 864 162 L 869 170 L 875 192 Q 879 199 889 201 L 899 199 Q 910 193 908 174 L 901 178 L 898 178 L 893 173 L 884 156 L 893 152 Q 899 149 901 141 Q 903 129 898 122 Q 892 114 881 111 L 831 111 Z M 926 227 L 925 228 L 912 229 L 896 236 Q 881 246 877 267 L 878 284 L 885 299 L 898 310 L 913 318 L 923 324 Q 931 329 935 339 Q 937 352 933 360 L 926 365 L 917 364 L 912 359 L 917 361 L 923 359 L 928 352 Q 930 341 926 336 L 922 333 L 908 327 Q 892 327 884 335 Q 876 340 874 351 L 875 364 L 880 374 L 889 383 L 900 389 L 912 392 L 937 392 L 938 391 L 952 390 L 964 385 L 974 379 Q 988 369 991 349 Q 991 339 988 332 L 977 316 Q 964 302 945 294 Q 937 289 934 280 Q 933 270 936 265 L 944 259 Q 954 258 959 262 L 963 266 L 963 268 L 956 265 L 949 267 L 945 273 Q 944 281 947 285 Q 951 292 960 294 Q 972 296 978 290 Q 984 285 986 275 Q 988 254 981 244 Q 973 233 957 229 L 944 228 L 943 227 L 926 227 Z M 318 229 Q 302 232 292 241 Q 280 252 271 266 L 265 279 L 259 300 L 259 322 L 261 324 L 262 335 Q 266 352 275 364 Q 288 382 313 388 L 333 388 L 338 387 Q 352 382 362 374 Q 381 357 387 326 L 387 298 L 383 284 Q 376 264 363 248 Q 354 238 340 232 L 329 229 L 318 229 Z M 714 232 L 707 233 L 710 246 L 710 255 L 711 256 L 712 284 L 713 285 L 713 330 L 712 331 L 712 347 L 711 348 L 710 368 L 707 376 L 707 384 L 708 384 L 768 384 L 761 352 L 760 336 L 759 335 L 759 324 L 758 321 L 764 323 Q 772 328 775 336 L 778 347 L 782 367 L 787 379 Q 794 388 806 392 L 821 391 L 833 384 Q 842 377 844 363 L 844 349 L 843 343 L 831 352 Q 825 352 822 349 L 818 344 L 805 316 L 802 313 L 819 305 Q 829 298 832 285 Q 834 273 831 264 Q 829 254 823 248 L 814 240 L 802 235 L 793 233 L 777 233 L 776 232 L 714 232 Z M 84 233 L 84 255 L 85 256 L 84 302 L 83 303 L 82 324 L 80 325 L 78 344 L 69 383 L 70 385 L 115 385 L 116 384 L 115 382 L 116 345 L 121 320 L 123 321 L 130 346 L 134 367 L 136 384 L 137 385 L 173 385 L 175 356 L 179 337 L 183 328 L 186 366 L 193 392 Q 202 419 218 438 Q 232 453 252 462 L 275 469 L 289 470 L 290 471 L 312 471 Q 313 469 318 470 Q 332 466 343 459 L 355 445 L 358 439 L 360 428 L 359 420 L 355 410 Q 350 401 337 399 L 331 399 L 321 403 Q 315 408 313 417 L 315 426 Q 317 434 330 432 L 331 432 L 328 436 L 319 442 L 308 445 L 296 445 L 282 442 Q 267 437 257 427 L 247 415 L 236 389 L 231 353 L 230 352 L 230 346 L 229 345 L 229 337 L 228 336 L 227 304 L 226 303 L 226 270 L 227 268 L 227 246 L 228 245 L 228 234 L 227 233 L 168 233 L 167 254 L 165 265 L 160 283 L 155 293 L 150 282 L 146 261 L 146 233 L 84 233 Z M 396 233 L 417 294 L 424 325 L 425 345 L 426 346 L 426 378 L 425 379 Q 423 384 426 385 L 505 385 L 506 384 L 505 382 L 506 345 L 507 344 L 507 334 L 508 333 L 509 320 L 516 292 L 534 236 L 533 233 L 478 233 L 478 241 L 479 242 L 478 277 L 477 278 L 477 285 L 473 299 L 473 304 L 470 315 Q 472 321 468 320 L 459 283 L 455 259 L 454 258 L 454 248 L 453 247 L 453 234 L 453 233 L 396 233 Z M 561 233 L 568 266 L 569 297 L 570 298 L 568 347 L 567 348 L 567 356 L 566 357 L 563 376 L 561 383 L 563 385 L 672 385 L 674 384 L 668 364 L 666 334 L 662 338 Q 656 347 644 349 L 633 349 L 621 345 L 613 335 Q 612 324 616 319 Q 619 315 625 315 L 626 318 Q 630 325 638 327 Q 647 328 651 325 L 657 319 L 660 310 L 657 299 L 649 292 L 636 289 L 624 290 L 608 298 L 611 283 L 618 272 Q 624 265 634 262 Q 650 260 656 267 L 666 279 Q 665 282 668 281 L 670 255 L 675 234 L 561 233 Z " style="stroke-width: 0px; fill: rgb(54, 79, 108);"/>
    <path d="M 856.731 129.198 L 868.91 130.257 L 873.675 133.963 L 873.675 139.259 L 868.91 144.024 L 857.79 145.083 L 856.731 142.436 L 856.731 129.198 Z " style="stroke-width: 0px; fill: rgb(54, 79, 108);"/>
    <path d="M 513.086 131.316 Q 521.452 130.363 523.146 136.082 L 527.382 146.671 L 527.382 162.557 Q 525.423 170.658 519.439 174.735 L 514.145 175.794 L 507.261 171.028 Q 500.744 163.249 503.025 146.671 L 509.379 133.434 L 513.086 131.316 Z " style="stroke-width: 0px; fill: rgb(54, 79, 108);"/>
    <path d="M 238.275 135.552 Q 241.452 134.228 240.393 138.2 L 245.688 157.261 L 244.099 158.85 L 234.569 159.909 L 231.921 158.32 L 238.275 135.552 Z " style="stroke-width: 0px; fill: rgb(54, 79, 108);"/>
    <path d="M 754.537 264.75 L 773.599 266.868 L 783.66 273.751 Q 784.984 286.724 776.777 290.166 L 771.482 292.284 L 755.597 292.284 L 754.008 290.696 L 754.008 270.575 L 752.949 266.339 L 754.537 264.75 Z " style="stroke-width: 0px; fill: rgb(54, 79, 108);"/>
    <path d="M 320.347 268.986 L 327.761 268.986 L 335.703 274.811 Q 346.921 289.008 346.293 315.053 L 343.116 329.879 Q 339.447 339.447 331.996 345.234 Q 328.517 348.108 321.407 347.352 Q 313.048 345.121 309.228 338.35 L 302.874 324.583 L 301.815 301.285 L 304.992 288.578 Q 308.765 278.054 316.112 271.104 L 320.347 268.986 Z " style="stroke-width: 0px; fill: rgb(54, 79, 108);"/>
  </g>
</svg>